<?xml version="1.0" encoding="UTF-8" standalone="no"?>
<!-- Created with Inkscape (http://www.inkscape.org/) -->

<svg
   width="500"
   height="330"
   viewBox="0 0 132.29166 87.312498"
   version="1.1"
   id="svg5"
   xml:space="preserve"
   inkscape:version="1.2.2 (732a01da63, 2022-12-09)"
   sodipodi:docname="cloud.svg"
   xmlns:inkscape="http://www.inkscape.org/namespaces/inkscape"
   xmlns:sodipodi="http://sodipodi.sourceforge.net/DTD/sodipodi-0.dtd"
   xmlns="http://www.w3.org/2000/svg"
   xmlns:svg="http://www.w3.org/2000/svg"><sodipodi:namedview
     id="namedview7"
     pagecolor="#ffffff"
     bordercolor="#000000"
     borderopacity="0.25"
     inkscape:showpageshadow="2"
     inkscape:pageopacity="0.0"
     inkscape:pagecheckerboard="0"
     inkscape:deskcolor="#d1d1d1"
     inkscape:document-units="mm"
     showgrid="false"
     inkscape:zoom="0.71624579"
     inkscape:cx="397.21001"
     inkscape:cy="50.96016"
     inkscape:window-width="1920"
     inkscape:window-height="991"
     inkscape:window-x="-9"
     inkscape:window-y="-9"
     inkscape:window-maximized="1"
     inkscape:current-layer="layer1" /><defs
     id="defs2" /><g
     inkscape:label="Vrstva 1"
     inkscape:groupmode="layer"
     id="layer1"><path
       style="fill:#000080;stroke-width:0.264583"
       d="m 23.128336,81.435302 c -7.8316,-2.3976 -13.7932705,-7.29357 -16.9219005,-13.89697 -1.35102,-2.85149 -1.9958,-5.66044 -1.9958,-8.6945 0,-4.91668 1.46085,-8.40503 5.00165,-11.94335 3.4237405,-3.42135 7.0895005,-5.32725 12.3130405,-6.4018 1.46374,-0.30111 2.69077,-0.56568 2.72672,-0.58793 0.036,-0.0223 -0.11036,-0.56665 -0.32515,-1.2098 -0.21478,-0.64314 -0.57162,-2.22674 -0.79297,-3.5191 -2.22456,-12.98815 5.75273,-25.9611499 18.25066,-29.6799899 3.36681,-1.00182 8.44615,-1.18506 12.06993,-0.43543 4.71368,0.97508 9.45761,3.4018 13.00024,6.6501499 2.08502,1.91183 4.4824,5.16547 5.77735,7.84083 0.59406,1.22732 1.11462,2.23149 1.15681,2.23149 0.0422,0 0.7166,-0.28154 1.49869,-0.62565 3.36296,-1.47965 7.82536,-1.90719 11.31658,-1.08424 6.267253,1.47732 11.087943,6.99022 12.208103,13.96108 l 0.33178,2.06474 1.482761,-0.21265 c 2.69635,-0.38671 7.63953,-0.17282 9.94943,0.4305 8.6972,2.2716 15.41577,9.00503 17.35389,17.39226 0.81202,3.51404 0.63539,8.46289 -0.41866,11.73021 -1.68066,5.20963 -4.42161,9.18905 -8.38772,12.1776 -2.49307,1.87859 -5.44518,3.34922 -7.39102,3.68193 -0.7975,0.13637 -20.171331,0.30719 -44.151284,0.38931 -37.88823,0.12974 -42.88012,0.10043 -44.05313,-0.25869 z m 48.94792,-1.06132 c 31.585264,-0.13264 38.094524,-0.22168 39.403914,-0.539 4.74467,-1.14985 10.35993,-5.96609 12.92113,-11.08254 0.36422,-0.7276 0.99701,-2.33495 1.40619,-3.57188 0.68292,-2.0644 0.74516,-2.58549 0.75845,-6.35 0.0127,-3.58765 -0.0631,-4.34802 -0.60507,-6.07402 -1.82068,-5.79793 -5.50504,-10.21436 -10.91895,-13.0885 -4.32337,-2.29519 -9.67835,-3.2619 -13.99379,-2.52624 -1.091401,0.18605 -2.341511,0.34987 -2.778021,0.36404 l -0.79365,0.0258 -0.19738,-1.97883 c -0.4173,-4.18358 -1.9747,-7.60836 -4.69491,-10.32429 -2.91926,-2.91468 -6.142063,-4.23664 -10.310893,-4.22942 -2.8346,0.005 -5.04011,0.51794 -7.45533,1.73423 -2.22099,1.11847 -2.18586,1.13582 -3.34089,-1.65006 -2.80012,-6.75379 -9.38654,-12.3844399 -16.8633,-14.4162499 -2.91701,-0.79269 -9.11493,-0.85622 -12.03854,-0.12339 -5.21116,1.30621 -10.1872,4.6840299 -13.47889,9.1496899 -4.84636,6.57478 -6.22718,14.87133 -3.80323,22.85132 0.8233,2.71042 0.84476,2.67246 -1.65628,2.9287 -2.5203,0.25822 -6.00089,1.3565 -8.69425,2.74344 -1.87144,0.9637 -2.89666,1.73008 -4.67197,3.49245 -3.7126505,3.68558 -4.9046205,6.71967 -4.6790105,11.91018 0.21391,4.92141 2.20283,9.33492 5.9970305,13.30775 2.28884,2.39658 4.34788,3.94111 7.07114,5.30421 4.16001,2.08224 6.66847,2.58687 12.00921,2.41588 1.96453,-0.0629 20.59781,-0.18585 41.40729,-0.27324 z"
       id="path903" /><path
       style="fill:#000080;stroke-width:0.264583"
       d="m 23.128336,81.435302 c -7.8316,-2.3976 -13.7932705,-7.29357 -16.9219005,-13.89697 -1.35102,-2.85149 -1.9958,-5.66044 -1.9958,-8.6945 0,-4.91668 1.46085,-8.40503 5.00165,-11.94335 3.4237405,-3.42135 7.0895005,-5.32725 12.3130405,-6.4018 1.46374,-0.30111 2.69077,-0.56568 2.72672,-0.58793 0.036,-0.0223 -0.11036,-0.56665 -0.32515,-1.2098 -0.21478,-0.64314 -0.57162,-2.22674 -0.79297,-3.5191 -2.22456,-12.98815 5.75273,-25.9611499 18.25066,-29.6799899 3.36681,-1.00182 8.44615,-1.18506 12.06993,-0.43543 4.71368,0.97508 9.45761,3.4018 13.00024,6.6501499 2.08502,1.91183 4.4824,5.16547 5.77735,7.84083 0.59406,1.22732 1.11462,2.23149 1.15681,2.23149 0.0422,0 0.7166,-0.28154 1.49869,-0.62565 3.36296,-1.47965 7.82536,-1.90719 11.31658,-1.08424 6.267253,1.47732 11.087943,6.99022 12.208103,13.96108 l 0.33178,2.06474 1.482761,-0.21265 c 2.69635,-0.38671 7.63953,-0.17282 9.94943,0.4305 8.6972,2.2716 15.41577,9.00503 17.35389,17.39226 0.81202,3.51404 0.63539,8.46289 -0.41866,11.73021 -1.68066,5.20963 -4.42161,9.18905 -8.38772,12.1776 -2.49307,1.87859 -5.44518,3.34922 -7.39102,3.68193 -0.7975,0.13637 -20.171331,0.30719 -44.151284,0.38931 -37.88823,0.12974 -42.88012,0.10043 -44.05313,-0.25869 z m 48.94792,-1.06132 c 31.585264,-0.13264 38.094524,-0.22168 39.403914,-0.539 4.74467,-1.14985 10.35993,-5.96609 12.92113,-11.08254 0.36422,-0.7276 0.99701,-2.33495 1.40619,-3.57188 0.68292,-2.0644 0.74516,-2.58549 0.75845,-6.35 0.0127,-3.58765 -0.0631,-4.34802 -0.60507,-6.07402 -1.82068,-5.79793 -5.50504,-10.21436 -10.91895,-13.0885 -4.32337,-2.29519 -9.67835,-3.2619 -13.99379,-2.52624 -1.091401,0.18605 -2.341511,0.34987 -2.778021,0.36404 l -0.79365,0.0258 -0.19738,-1.97883 c -0.4173,-4.18358 -1.9747,-7.60836 -4.69491,-10.32429 -2.91926,-2.91468 -6.142063,-4.23664 -10.310893,-4.22942 -2.8346,0.005 -5.04011,0.51794 -7.45533,1.73423 -2.22099,1.11847 -2.18586,1.13582 -3.34089,-1.65006 -2.80012,-6.75379 -9.38654,-12.3844399 -16.8633,-14.4162499 -2.91701,-0.79269 -9.11493,-0.85622 -12.03854,-0.12339 -5.21116,1.30621 -10.1872,4.6840299 -13.47889,9.1496899 -4.84636,6.57478 -6.22718,14.87133 -3.80323,22.85132 0.8233,2.71042 0.84476,2.67246 -1.65628,2.9287 -2.5203,0.25822 -6.00089,1.3565 -8.69425,2.74344 -1.87144,0.9637 -2.89666,1.73008 -4.67197,3.49245 -3.7126505,3.68558 -4.9046205,6.71967 -4.6790105,11.91018 0.21391,4.92141 2.20283,9.33492 5.9970305,13.30775 2.28884,2.39658 4.34788,3.94111 7.07114,5.30421 4.16001,2.08224 6.66847,2.58687 12.00921,2.41588 1.96453,-0.0629 20.59781,-0.18585 41.40729,-0.27324 z"
       id="path1112" /></g></svg>
